<svg width="46" height="42" viewBox="0 0 46 42" fill="none" xmlns="http://www.w3.org/2000/svg">
<path d="M5.88 34.27V33.13H0.71V40H1.96V37.15H5.51V36.01H1.96V34.27H5.88ZM9.17977 34.71C8.52977 34.71 7.84977 34.89 7.11977 35.25L7.53977 36.1C7.97977 35.88 8.44977 35.71 8.93977 35.71C9.87977 35.71 10.2098 36.29 10.2098 36.89V37.03C9.73977 36.85 9.22977 36.75 8.75977 36.75C7.59977 36.75 6.64977 37.45 6.64977 38.47C6.64977 39.47 7.47977 40.12 8.57977 40.12C9.17977 40.12 9.82977 39.86 10.2098 39.38V40H11.3998V36.89C11.3998 35.58 10.5498 34.71 9.17977 34.71ZM8.84977 39.23C8.26977 39.23 7.83977 38.92 7.83977 38.43C7.83977 37.94 8.32977 37.6 8.93977 37.6C9.39977 37.6 9.82977 37.67 10.2098 37.8V38.38C10.0698 38.93 9.43977 39.23 8.84977 39.23ZM14.4508 40H15.6008L17.7908 34.83H16.4908L15.0208 38.59L13.5208 34.83H12.2308L14.4508 40ZM20.9044 40.12C22.4044 40.12 23.6744 38.88 23.6744 37.41C23.6744 35.94 22.4044 34.71 20.9044 34.71C19.4044 34.71 18.1344 35.94 18.1344 37.41C18.1344 38.88 19.4044 40.12 20.9044 40.12ZM20.9044 39.08C20.0444 39.08 19.3244 38.32 19.3244 37.41C19.3244 36.51 20.0444 35.75 20.9044 35.75C21.7544 35.75 22.4744 36.51 22.4744 37.41C22.4744 38.32 21.7544 39.08 20.9044 39.08ZM25.9825 35.83V34.83H24.7625V40H25.9825V37.39C25.9825 36.41 26.7225 35.75 27.8325 35.75V34.71C26.9825 34.71 26.3125 35.14 25.9825 35.83ZM29.3564 34.05C29.7364 34.05 30.0464 33.72 30.0464 33.35C30.0464 32.98 29.7364 32.66 29.3564 32.66C28.9664 32.66 28.6564 32.98 28.6564 33.35C28.6564 33.72 28.9664 34.05 29.3564 34.05ZM28.7364 40H29.9564V34.83H28.7364V40ZM33.8848 38.89C33.7748 39 33.5848 39.08 33.3748 39.08C33.0848 39.08 32.8648 38.83 32.8648 38.48V35.84H34.0348V34.83H32.8648V33.41H31.6748V34.83H30.9248V35.84H31.6748V38.63C31.6748 39.5 32.2748 40.12 33.1348 40.12C33.5248 40.12 33.9448 39.96 34.2348 39.71L33.8848 38.89ZM37.5917 39.04C36.8517 39.04 36.3117 38.54 36.1617 37.83H40.0617C40.0617 35.92 39.1317 34.71 37.5317 34.71C36.0617 34.71 34.9017 35.85 34.9017 37.4C34.9017 38.99 36.1217 40.12 37.6017 40.12C38.3517 40.12 39.2517 39.8 39.7017 39.32L38.9317 38.52C38.6417 38.82 38.0717 39.04 37.5917 39.04ZM37.5817 35.79C38.3117 35.79 38.7517 36.25 38.8917 36.9H36.1717C36.3517 36.22 36.9017 35.79 37.5817 35.79ZM43.0292 40.12C44.2392 40.12 45.0592 39.48 45.0592 38.49C45.0592 37.41 44.1192 37.11 43.2492 36.87C42.4592 36.64 42.1892 36.54 42.1892 36.21C42.1892 35.92 42.5192 35.75 42.9492 35.75C43.3992 35.75 43.9292 35.91 44.4192 36.22L44.9292 35.33C44.3692 34.96 43.6592 34.71 42.9492 34.71C41.7992 34.71 40.9992 35.37 40.9992 36.34C41.0092 37.26 41.7192 37.58 42.8392 37.87C43.4292 38.03 43.8792 38.16 43.8792 38.56C43.8792 38.88 43.5392 39.09 43.0492 39.09C42.3992 39.09 41.8192 38.85 41.3192 38.49L40.7692 39.34C41.3892 39.84 42.2392 40.12 43.0292 40.12Z" fill="#2D6D5D"/>
<path fill-rule="evenodd" clip-rule="evenodd" d="M22.079 27L20.1826 25.2736C13.4469 19.1657 9 15.1373 9 10.1935C9 6.16512 12.1651 3 16.1935 3C18.4692 3 20.6534 4.0594 22.079 5.73351C23.5046 4.0594 25.6888 3 27.9646 3C31.9929 3 35.158 6.16512 35.158 10.1935C35.158 15.1373 30.7112 19.1657 23.9755 25.2866L22.079 27Z" fill="#2D6D5D"/>
</svg>
