<svg width="32" height="42" viewBox="0 0 32 42" fill="none" xmlns="http://www.w3.org/2000/svg">
<path fill-rule="evenodd" clip-rule="evenodd" d="M15.1408 3C17.9465 3 20.2113 5.26479 20.2113 8.07042C20.2113 10.8761 17.9465 13.1408 15.1408 13.1408C12.3352 13.1408 10.0704 10.8761 10.0704 8.07042C10.0704 5.26479 12.3352 3 15.1408 3ZM15.1408 27C11.0621 27 7.25463 24.9566 5 21.5577C5.0507 18.1943 11.7606 16.3521 15.1408 16.3521C18.5042 16.3521 25.231 18.1943 25.2817 21.5577C23.0271 24.9566 19.2196 27 15.1408 27Z" fill="#2D6D5D"/>
<path d="M0.71 40H1.96V37.69H3.7C5.17 37.69 6.27 36.75 6.27 35.41C6.27 34.07 5.17 33.13 3.7 33.13H0.71V40ZM1.96 36.54V34.28H3.56C4.41 34.28 5 34.71 5 35.41C5 36.11 4.41 36.54 3.56 36.54H1.96ZM8.46297 35.83V34.83H7.24297V40H8.46297V37.39C8.46297 36.41 9.20297 35.75 10.313 35.75V34.71C9.46297 34.71 8.79297 35.14 8.46297 35.83ZM13.5899 40.12C15.0899 40.12 16.3599 38.88 16.3599 37.41C16.3599 35.94 15.0899 34.71 13.5899 34.71C12.0899 34.71 10.8199 35.94 10.8199 37.41C10.8199 38.88 12.0899 40.12 13.5899 40.12ZM13.5899 39.08C12.7299 39.08 12.0099 38.32 12.0099 37.41C12.0099 36.51 12.7299 35.75 13.5899 35.75C14.4399 35.75 15.1599 36.51 15.1599 37.41C15.1599 38.32 14.4399 39.08 13.5899 39.08ZM18.978 34.4C18.978 34.05 19.198 33.8 19.488 33.8C19.698 33.8 19.888 33.88 19.998 33.99L20.348 33.21C20.058 32.96 19.638 32.8 19.248 32.8C18.388 32.8 17.788 33.42 17.788 34.29V34.83H17.038V35.84H17.788V40H18.978V35.84H20.148V34.83H18.978V34.4ZM21.7392 34.05C22.1192 34.05 22.4292 33.72 22.4292 33.35C22.4292 32.98 22.1192 32.66 21.7392 32.66C21.3492 32.66 21.0392 32.98 21.0392 33.35C21.0392 33.72 21.3492 34.05 21.7392 34.05ZM21.1192 40H22.3392V34.83H21.1192V40ZM23.6876 40H24.9076V33.01H23.6876V40ZM28.6659 39.04C27.9259 39.04 27.3859 38.54 27.2359 37.83H31.1359C31.1359 35.92 30.2059 34.71 28.6059 34.71C27.1359 34.71 25.9759 35.85 25.9759 37.4C25.9759 38.99 27.1959 40.12 28.6759 40.12C29.4259 40.12 30.3259 39.8 30.7759 39.32L30.0059 38.52C29.7159 38.82 29.1459 39.04 28.6659 39.04ZM28.6559 35.79C29.3859 35.79 29.8259 36.25 29.9659 36.9H27.2459C27.4259 36.22 27.9759 35.79 28.6559 35.79Z" fill="#2D6D5D"/>
</svg>
